{"scene":0,"asset":{"generator":"ImageToStl.com","version":"2.0"},"scenes":[{"name":"Scene","nodes":[0]}],"nodes":[{"name":"Node0","children":[1]},{"name":"Node1","mesh":0}],"materials":[{"name":"SVGMat","pbrMetallicRoughness":{"baseColorFactor":[1.0,1.0,1.0,1.0],"metallicFactor":0.5,"roughnessFactor":0.64},"emissiveFactor":[0.0,0.0,0.0],"doubleSided":true}],"meshes":[{"name":"Mesh0","primitives":[{"indices":2,"material":0,"attributes":{"POSITION":0,"NORMAL":1}}]}],"accessors":[{"bufferView":0,"componentType":5126,"count":816,"type":"VEC3","min":[-0.18163392,-1.509958E-07,-0.017942712],"max":[1.8250759E-07,1.3902551,1.0164859]},{"bufferView":1,"componentType":5126,"count":816,"type":"VEC3"},{"bufferView":2,"componentType":5123,"count":4590,"type":"SCALAR"}],"bufferViews":[{"target":34962,"buffer":0,"byteLength":9792,"byteOffset":0},{"target":34962,"buffer":0,"byteLength":9792,"byteOffset":9792},{"target":34963,"buffer":0,"byteLength":9180,"byteOffset":19584}],"buffers":[{"byteLength":28764,"uri":"data:application/octet-stream;base64,"}]}